<svg width="29" height="23" viewBox="0 0 29 23" fill="none" xmlns="http://www.w3.org/2000/svg">
<path d="M10.1177 21.8906L10.1102 21.887L10.0865 21.8723C9.94785 21.7858 9.81035 21.6969 9.674 21.6059C8.03472 20.5003 6.50276 19.2016 5.10354 17.7313C2.62554 15.1071 0 11.213 0 6.41692C0 2.83816 2.65354 8.67204e-05 5.85631 8.67204e-05C6.74666 -0.0048627 7.62653 0.218064 8.4305 0.652288C9.23447 1.08651 9.94184 1.72086 10.5 2.50815C11.0583 1.7207 11.7658 1.08625 12.57 0.652022C13.3742 0.217791 14.2542 -0.00504675 15.1448 8.67204e-05C18.3465 8.67204e-05 21 2.83816 21 6.41692C21 11.2143 18.3745 15.1084 15.8965 17.7301C14.4973 19.2004 12.9653 20.4991 11.326 21.6046C11.1897 21.6961 11.0522 21.7854 10.9135 21.8723L10.8898 21.887L10.8823 21.8919L10.8791 21.8931C10.7623 21.9633 10.6322 22 10.5 22C10.3678 22 10.2377 21.9633 10.1209 21.8931L10.1177 21.8906Z" fill="white"/>
<path d="M20.8933 19.9649L24.0833 13.7316H21.8833V9.69823L18.5833 15.9316H20.8933V19.9649ZM21.3333 22.1649C20.3189 22.1649 19.3656 21.9724 18.4733 21.5874C17.5811 21.2024 16.805 20.6799 16.145 20.0199C15.485 19.3599 14.9625 18.5838 14.5775 17.6916C14.1925 16.7993 14 15.846 14 14.8316C14 13.8171 14.1925 12.8638 14.5775 11.9716C14.9625 11.0793 15.485 10.3032 16.145 9.64323C16.805 8.98323 17.5811 8.46073 18.4733 8.07573C19.3656 7.69073 20.3189 7.49823 21.3333 7.49823C22.3478 7.49823 23.3011 7.69073 24.1933 8.07573C25.0856 8.46073 25.8617 8.98323 26.5217 9.64323C27.1817 10.3032 27.7042 11.0793 28.0892 11.9716C28.4742 12.8638 28.6667 13.8171 28.6667 14.8316C28.6667 15.846 28.4742 16.7993 28.0892 17.6916C27.7042 18.5838 27.1817 19.3599 26.5217 20.0199C25.8617 20.6799 25.0856 21.2024 24.1933 21.5874C23.3011 21.9724 22.3478 22.1649 21.3333 22.1649Z" fill="#894189"/>
<path d="M21.2667 19.4982L24.1667 13.8315H22.1667V10.1649L19.1667 15.8315H21.2667V19.4982ZM21.6667 21.4982C20.7444 21.4982 19.8778 21.3232 19.0667 20.9732C18.2556 20.6232 17.55 20.1482 16.95 19.5482C16.35 18.9482 15.875 18.2426 15.525 17.4315C15.175 16.6204 15 15.7537 15 14.8315C15 13.9093 15.175 13.0426 15.525 12.2315C15.875 11.4204 16.35 10.7149 16.95 10.1149C17.55 9.51486 18.2556 9.03986 19.0667 8.68986C19.8778 8.33986 20.7444 8.16486 21.6667 8.16486C22.5889 8.16486 23.4556 8.33986 24.2667 8.68986C25.0778 9.03986 25.7833 9.51486 26.3833 10.1149C26.9833 10.7149 27.4583 11.4204 27.8083 12.2315C28.1583 13.0426 28.3333 13.9093 28.3333 14.8315C28.3333 15.7537 28.1583 16.6204 27.8083 17.4315C27.4583 18.2426 26.9833 18.9482 26.3833 19.5482C25.7833 20.1482 25.0778 20.6232 24.2667 20.9732C23.4556 21.3232 22.5889 21.4982 21.6667 21.4982Z" fill="white"/>
</svg>
